<?xml version="1.0" standalone="no"?><!DOCTYPE svg PUBLIC "-//W3C//DTD SVG 1.1//EN" "http://www.w3.org/Graphics/SVG/1.1/DTD/svg11.dtd"><svg t="1552007632995" class="icon" style="" viewBox="0 0 1024 1024" version="1.1" xmlns="http://www.w3.org/2000/svg" p-id="2193" xmlns:xlink="http://www.w3.org/1999/xlink" width="200" height="200"><defs><style type="text/css"></style></defs><path d="M999.2 692.32h-25.44c-11.552 0-24.064-9.088-27.392-20.192l-14.656-35.52c-5.536-10.304-3.2-25.504 4.864-33.76l18.016-18.016a21.28 21.28 0 0 0 0-29.952l-29.984-29.92a21.28 21.28 0 0 0-30.016 0l-17.984 17.952c-8.224 8.224-23.36 10.464-33.664 5.024l-35.52-14.592c-11.104-3.52-20.192-15.808-20.192-27.424v-25.44a21.28 21.28 0 0 0-21.216-21.152h-42.336a21.376 21.376 0 0 0-21.248 21.152v25.44c0 11.616-9.088 24.064-20.192 27.424l-35.552 14.592c-10.208 5.568-25.408 3.232-33.664-5.024l-18.144-17.952a21.216 21.216 0 0 0-29.952 0l-29.984 29.92a21.28 21.28 0 0 0 0 29.952l17.984 18.016c8.32 8.256 10.624 23.424 5.088 33.76l-14.656 35.52c-3.552 11.104-15.808 20.192-27.456 20.192h-25.344a21.344 21.344 0 0 0-21.216 21.184v42.368c0 11.584 9.568 21.248 21.216 21.248h25.408c11.616 0 24.064 8.992 27.456 20.192l14.656 35.552c5.536 10.208 3.232 25.312-5.088 33.6l-17.984 17.984a21.344 21.344 0 0 0 0 30.016l29.984 29.952a21.12 21.12 0 0 0 29.952 0l18.016-18.016a30.24 30.24 0 0 1 33.632-4.896l35.52 14.656c11.168 3.424 20.256 15.84 20.256 27.392v25.44c0 11.616 9.536 21.248 21.216 21.248h42.368a21.44 21.44 0 0 0 21.216-21.248v-25.472c0-11.552 9.024-24.032 20.192-27.392l35.52-14.656c10.272-5.536 25.44-3.328 33.632 4.896l18.016 18.016a21.184 21.184 0 0 0 29.984 0l29.984-29.952a21.344 21.344 0 0 0 0-30.016l-18.016-17.984c-8.256-8.288-10.464-23.36-4.896-33.6l14.688-35.552a30.496 30.496 0 0 1 27.392-20.192h25.6a21.376 21.376 0 0 0 21.184-21.248v-42.368a21.344 21.344 0 0 0-21.248-21.152z m-254.496 148.352a106.016 106.016 0 1 1 0-212.096 106.016 106.016 0 0 1 0 212.096z" p-id="2194"></path><path d="M589.76 436.928V77.728c0-36.128-29.344-52.8-65.504-37.344L264.032 207.552H134.304a129.984 129.984 0 0 0-130.656 130.08v260.672a129.6 129.6 0 0 0 130.656 130.08h129.888l178.048 114.368a316.544 316.544 0 0 1 147.52-405.824z m255.936-251.648c14.144 16.384 28.128 35.712 41.248 58.08 37.888 64.288 60.608 139.232 60.608 224.672 0 5.76-0.192 11.488-0.352 17.024a318.304 318.304 0 0 1 58.016 70.976c4.896-28.224 7.36-57.504 7.36-88 0-97.792-26.048-184.096-69.44-257.792-26.272-44.64-52.896-75.456-71.52-92.128a32.48 32.48 0 0 0-23.52-8.128 32.416 32.416 0 0 0-22.464 10.848 32.928 32.928 0 0 0 2.72 46.08c3.008 2.752 9.312 8.96 17.344 18.368zM723.2 337.632c9.76 19.84 17.344 41.408 22.368 64.96a315.2 315.2 0 0 1 67.84 9.952 348.352 348.352 0 0 0-32.032-103.68c-13.632-27.776-27.712-47.392-38.016-58.208a32.512 32.512 0 0 0-47.456 44.384c6.24 6.592 16.64 21.056 27.296 42.592z" p-id="2195"></path></svg>