<?xml version="1.0" standalone="no"?><!DOCTYPE svg PUBLIC "-//W3C//DTD SVG 1.1//EN" "http://www.w3.org/Graphics/SVG/1.1/DTD/svg11.dtd"><svg t="1551249729095" class="icon" style="" viewBox="0 0 1024 1024" version="1.1" xmlns="http://www.w3.org/2000/svg" p-id="819" xmlns:xlink="http://www.w3.org/1999/xlink" width="200" height="200"><defs><style type="text/css"></style></defs><path d="M489.670743 319.578551a29.784384 29.784384 0 0 0-29.805456-29.796425H174.977987a29.784384 29.784384 0 0 0-29.799436 29.796425 29.781373 29.781373 0 0 0 29.799436 29.793415h284.89031a29.772342 29.772342 0 0 0 29.802446-29.793415zM319.369332 496.86397a29.784384 29.784384 0 0 0-29.799435-29.805456H174.977987a29.784384 29.784384 0 0 0-29.799436 29.805456 29.772342 29.772342 0 0 0 29.799436 29.787394h114.59793a29.772342 29.772342 0 0 0 29.793415-29.787394zM174.977987 644.340922a29.784384 29.784384 0 0 0-29.799436 29.793415 29.775353 29.775353 0 0 0 29.799436 29.796425h81.363688a29.772342 29.772342 0 0 0 29.796425-29.796425 29.784384 29.784384 0 0 0-29.796425-29.793415H174.977987z" p-id="820"></path><path d="M420.237065 922.424835H160.365757c-29.965005 0-54.351834-28.231044-54.351834-62.973471V165.981562c0-34.745437 24.38683-63.030668 54.351834-63.030668h546.914017c29.916839 0 54.3127 28.28523 54.3127 63.030668v80.496707a29.772342 29.772342 0 0 0 29.793415 29.796425c16.457573 0 29.799436-13.329821 29.799436-29.796425v-80.496707c0-67.621449-51.103669-122.626529-113.905551-122.626529H160.365757c-62.853057 0-113.956726 55.00508-113.956726 122.626529v693.466792c0 67.567262 51.103669 122.569332 113.956726 122.569332h259.871308a29.772342 29.772342 0 0 0 29.793415-29.802446 29.766322 29.766322 0 0 0-29.793415-29.790405z" p-id="821"></path><path d="M928.73603 652.556162a6.673942 6.673942 0 0 1-3.898401-4.894826c-0.288993-1.514205-0.216745-3.784008 1.926623-6.044779 2.209595-2.399247 4.828598-4.202446 8.492192-5.773848 26.72286-11.93603 41.043086-35.097648 38.30969-62.040263-2.805644-27.707244-11.063029-50.751458-25.326059-70.357855-18.796613-25.901035-47.491251-34.33904-76.649482-22.174224-4.130198 1.688805-7.965381 2.498589-12.10461 2.498589-2.16143 0-5.466792-2.149389-5.659454-4.127187-0.216745-2.85682 0.189652-5.590216 1.46905-9.205645 2.85682-8.085795 7.09238-20.250611 4.124176-35.326434-4.762371-23.101411-21.066416-36.313829-28.682596-42.542239-21.475823-17.694826-46.630292-22.996049-63.614675-25.434431-21.542051-3.555221-41.967262 4.708184-55.242898 21.770837-5.066416 6.454186-9.590969 13.079962-12.556162 19.898401-0.848918 1.90254-5.776858 7.95334-12.408654 4.009783-2.649106-1.568391-4.24158-5.352399-6.872625-10.942615-12.155786-25.374224-34.51063-38.062841-61.618815-34.980244-29.799436 3.495014-53.499906 12.571214-72.296519 27.704233-21.066416 16.942239-29.001693 39.86604-22.923801 64.833866 0.659266 2.727375 1.131891 5.147695 1.971778 8.03763 0 0 0.936218 3.443838 1.017498 5.496895 0.075259 1.682785 0.469614 3.449859-0.454563 5.213923-1.032549 1.950706-3.061524 4.196425-7.835936 4.012794-3.555221-0.237817-8.155033-1.222201-17.110818-3.784007-13.387018-3.729821-39.17667-6.107996-62.160677 20.073-16.063217 18.405268-22.640828 39.405456-26.885419 57.503669-7.453622 31.385889 4.828598 70.074882 41.783631 82.94111 0.523801 0.288993 5.587206 0.288993 6.288617 6.111007 0.355221 2.968203-3.958608 6.634807-11.41524 9.77159-26.479022 11.105174-40.447037 34.796613-38.354844 64.948259 1.806209 25.557855 10.710818 48.960301 26.430856 69.602258 16.120414 21.18683 40.38984 30.154657 66.751458 24.109878 7.860019-1.806209 14.78683-3.209031 19.0254-3.561242 0.114393 2.444403-1.393791 6.529445-2.959172 10.653622-3.022389 7.676388-6.755221 19.564252-4.425212 33.884478 2.555786 15.882596 10.593415 29.203387 24.745061 40.784196 17.974788 14.723612 40.206209 24.395861 67.964628 29.57968 32.713452 6.111007 63.039699-9.789652 74.789088-39.760678 0.593039-1.568391 3.004327-11.105174 9.404327-10.653621 5.147695 0.370273 5.656444 4.49445 8.931703 11.746378 11.358043 25.289934 33.050611 39.998495 57.6873 39.998495 2.733396 0 5.517968-0.17159 8.374788-0.523801 23.327187-3.088617 44.920414-11.297836 64.25287-24.395861 27.180433-18.501599 37.069426-51.847225 23.968391-81.068673-0.571966-1.285419-2.137347-7.062277-0.806773-9.371214 2.477516-4.286736 11.427281-0.102352 21.421637 2.375165 25.645155 6.384948 50.393227-1.378739 69.253057-22.56858 18.218627-20.660019 24.164064-44.824083 27.063029-61.23349 4.377046-24.781185-3.89539-42.301411-11.511571-52.605832-9.42841-12.721731-21.891251-19.588335-31.671872-24.188147z m-15.476199 66.519661c-2.670179 14.955409-6.688993 24.847413-13.037818 32.009031-4.942992 5.656444-7.155597 5.114581-9.940169 4.371026-14.031232-3.561242-29.459266-6.348824-46.627281-3.323425-25.777611 4.608843-47.30762 28.631421-48.990405 54.478269-0.996425 14.368391 0.930198 26.780056 5.993603 37.951459 1.685795 3.784008-1.995861 6.631797-3.091627 7.378363-11.704233 7.923236-24.323612 12.697648-39.167639 14.741674-0.403387-0.234807-1.875447-1.691816-3.326435-4.897836-8.251364-18.501599-20.765381-31.65682-37.427657-39.170649-22.168203-9.892004-45.329821-7.035183-65.354657 7.923236-11.746378 8.844403-20.307808 19.838194-25.419379 32.770649-0.526811 1.399812-1.285419 4.012794-8.392851 2.965193-17.863405-3.37159-30.95842-8.796237-41.139416-17.116839l-4.259643-3.796049 1.809219-3.311383c3.729821-9.657197 7.561994-21.054374 6.872625-34.965193-1.285419-28.228034-22.469238-51.45889-50.293885-55.185701a94.082408 94.082408 0 0 0-11.105174-0.69238c-10.948636 0-20.900847 2.038006-30.27206 4.133208-3.663594 0.930198-4.184384 0.523801-6.165193-2.041016-8.552399-11.294826-13.441204-23.971402-14.374412-37.71063 0 0-0.180621-2.992286 0.198683-3.901411 0.25588-0.590028 1.225212-1.568391 1.782126-1.923613 17.372719-10.822201 33.29445-21.241016 41.723424-38.409031 10.771025-21.87921 8.152023-45.74826-7.158608-63.903669-7.444591-8.726999-17.809219-19.446849-32.00602-24.39586-6.634807-2.311947-4.365005-13.200376-4.365005-13.387018 3.72079-15.771214 7.739605-25.022013 18.330009-32.869991 9.136406 2.552775 20.371025 5.876199 33.691816 4.879774 34.570837-2.146378 59.306867-25.901035 61.519473-58.135842l0.993415-9.843838-0.641204-11.809595c-0.574976-5.764817-1.282408-11.472437-0.117404-20.84064 9.961242-8.025588 23.230856-12.80301 42.665663-13.673001 3.847225 8.206209 9.554845 18.917027 19.498025 28.462841 15.021637 14.374412 35.738852 20.310818 56.742051 16.69539 21.999624-3.89539 40.853434-17.980809 50.531702-37.656444a44.571214 44.571214 0 0 1 5.584196-8.787206c16.292004 2.330009 26.539229 6.0508 34.453434 12.568204 1.860395 1.580433 7.616181 6.171214 7.902163 6.351834l-1.788146 5.764817c-4.082032 11.403198-5.584196 22.520414-4.608843 34.161429 2.920038 31.605644 29.983067 57.262841 61.585701 58.382691 13.031797-0.123424 25.831797-1.875447 38.237441-6.990028l2.923048-1.46905 2.76952 3.564252c7.917215 10.885419 12.577234 24.447037 11.24064 42.89746-10.840263 4.708184-20.259643 11.294826-27.887865 19.434807-14.654374 15.48222-21.006209 37.18984-17.050611 58.018439 3.964628 20.900847 17.875447 38.710066 37.259078 47.795296 3.139793 1.447977 7.444591 3.660583 8.964816 5.635371 0.617121 0.879022 1.562371 2.15842 0.737536 6.872625z" p-id="822"></path><path d="M690.358608 505.825776c-78.636312 1.047601-140.038382 62.506867-139.797554 139.860772 0.114393 37.713641 14.955409 73.100282 41.895014 99.642521 26.373659 26.063594 61.116087 40.326623 97.839322 40.326622h1.514205c78.10047-0.758608 141.140169-63.795296 140.492945-140.559172-0.288993-37.596237-15.241392-72.862465-42.135842-99.169896-26.822201-26.298401-62.44666-40.507244-99.80809-40.100847z m0.86397 220.237065c-22.234431 1.908561-41.615052-7.983443-56.910631-23.161618-15.545437-15.31063-24.088805-35.684666-24.152022-57.332079-0.126435-44.348448 35.446849-79.56952 80.948259-80.138476h1.065664c21.117592 0 41.076199 8.13396 56.269426 23.041204 15.47921 15.196237 24.088805 35.434807 24.275447 57.097272 0.403387 43.945061-36.15428 80.08429-81.496143 80.493697z" p-id="823"></path></svg>