<?xml version="1.0" standalone="no"?><!DOCTYPE svg PUBLIC "-//W3C//DTD SVG 1.1//EN" "http://www.w3.org/Graphics/SVG/1.1/DTD/svg11.dtd"><svg t="1548641400291" class="icon" style="" viewBox="0 0 1024 1024" version="1.1" xmlns="http://www.w3.org/2000/svg" p-id="1284" xmlns:xlink="http://www.w3.org/1999/xlink" width="200" height="200"><defs><style type="text/css"></style></defs><path d="M70.5 239.8c0 30.6 24.8 55.4 55.4 55.4s55.4-24.8 55.4-55.4-24.8-55.4-55.4-55.4c-30.6 0-55.4 24.8-55.4 55.4z m0.1 274.4c0 30.6 24.8 55.4 55.4 55.4 30.6 0 55.4-24.8 55.4-55.4 0-30.6-24.8-55.4-55.4-55.4-30.6-0.1-55.4 24.7-55.4 55.4z m0 275.8c0 30.6 24.8 55.4 55.4 55.4 30.6 0 55.4-24.8 55.4-55.4 0-30.6-24.8-55.4-55.4-55.4S70.6 759.3 70.6 790z m886.6-552.8c0 29.2-21.7 52.8-48.5 52.8H334c-26.8 0-48.5-23.7-48.5-52.8 0-29.1 21.7-52.8 48.5-52.8h574.7c26.8 0 48.5 23.6 48.5 52.8z m0 274.4c0 29.1-21.7 52.8-48.5 52.8H334c-26.8 0-48.5-23.7-48.5-52.8 0-29.2 21.7-52.8 48.5-52.8h574.7c26.8 0 48.5 23.6 48.5 52.8z m0 275.7c0 29.2-21.7 52.9-48.5 52.9H334c-26.8 0-48.5-23.7-48.5-52.9 0-29.1 21.7-52.7 48.5-52.7h574.7c26.8-0.1 48.5 23.6 48.5 52.7z" p-id="1285"></path></svg>