<?xml version="1.0" standalone="no"?><!DOCTYPE svg PUBLIC "-//W3C//DTD SVG 1.1//EN" "http://www.w3.org/Graphics/SVG/1.1/DTD/svg11.dtd"><svg t="1550026010418" class="icon" style="" viewBox="0 0 1068 1024" version="1.1" xmlns="http://www.w3.org/2000/svg" p-id="1085" xmlns:xlink="http://www.w3.org/1999/xlink" width="208.59375" height="200"><defs><style type="text/css"></style></defs><path d="M311.120436 622.227707a44.443896 44.443896 0 1 0 44.48339-44.45706 44.457061 44.457061 0 0 0-44.430731 44.443896z m622.267202-50.762933c76.499846-19.839144 133.318523-88.76931 133.318523-171.482875a177.801913 177.801913 0 0 0-355.564332 0c0 82.72673 56.726525 151.643731 133.292193 171.482875v406.287772l88.900957-88.900957v-44.430731h88.874627v-44.457061h-88.874627v-88.861462h88.874627V666.658439h-88.874627v-95.193665z m-44.443896-82.581919a88.874627 88.874627 0 1 1 88.861462-88.900956 88.874627 88.874627 0 0 1-88.861462 88.900956zM133.358017 400.047722c0.092153 0 0.118482-0.105317 0.210635-0.105317 44.220097 75.709966 117.165484 133.410676 199.773732 133.410675s155.5668-57.727039 199.773732-133.410675c0.092153 0 0.144811 0.105317 0.236964 0.105317 24.565258 0 88.874627-64.335699 88.874627-88.900957a44.430731 44.430731 0 0 0-44.417566-44.443896c-0.39494 0-0.737221 0.236964-1.15849 0.236964 0.658233-7.517021 1.15849-15.047208 1.15849-22.445747C577.823306 109.424663 468.359148 0 333.355549 0S88.900956 109.450992 88.900956 244.454592c0 7.424869 0.500257 14.928726 1.158491 22.445747-0.447598 0-0.76355-0.236964-1.158491-0.236963a44.391237 44.391237 0 0 0-44.417566 44.443895c0 24.565258 64.269876 88.900956 88.874627 88.900957z m347.652371 209.318112l-80.962666 323.98231h-31.805821l31.792656-222.21948h-88.914121l31.739998 222.21948h-31.739998l-80.988995-323.98231C112.202407 664.051836 0 780.82238 0 888.877918c0 147.299393 208.304433 133.344852 355.603826 133.344853s355.590661 13.954541 355.590661-133.344853c0-108.068703-112.255065-224.839247-230.15777-279.47259z m0 0" p-id="1086"></path></svg>