<?xml version="1.0" standalone="no"?><!DOCTYPE svg PUBLIC "-//W3C//DTD SVG 1.1//EN" "http://www.w3.org/Graphics/SVG/1.1/DTD/svg11.dtd"><svg t="1587988665847" class="icon" viewBox="0 0 1024 1024" version="1.1" xmlns="http://www.w3.org/2000/svg" p-id="9541" xmlns:xlink="http://www.w3.org/1999/xlink" width="200" height="200"><defs><style type="text/css"></style></defs><path d="M714.731313 556.06303a206.868687 206.868687 0 1 0 206.868687 206.868687 206.868687 206.868687 0 0 0-206.868687-206.868687z m76.541414 244.105051h-89.367272a25.651717 25.651717 0 0 1-25.651718-25.651717v-77.368889a25.651717 25.651717 0 0 1 51.303435 0v51.303434h63.715555a26.065455 26.065455 0 0 1 0 51.717172z" p-id="9542"></path><path d="M715.558788 174.183434h-113.364041a124.121212 124.121212 0 0 0-231.279191 0H256.72404a82.747475 82.747475 0 0 0-82.747474 82.747475v572.612525a82.747475 82.747475 0 0 0 82.747474 82.747475h251.138586A254.034747 254.034747 0 0 1 711.835152 502.277172a358.710303 358.710303 0 0 1 87.712323 10.757171V256.103434a82.747475 82.747475 0 0 0-83.988687-81.92z m-228.796768 0a41.373737 41.373737 0 1 1-41.373737 41.373738 41.373737 41.373737 0 0 1 41.373737-41.373738zM401.945859 707.077172a28.134141 28.134141 0 0 1-24.410505 13.653333H323.335758a28.134141 28.134141 0 0 1-25.23798-13.653333 27.306667 27.306667 0 0 1 24.410505-41.373738h55.027071a27.306667 27.306667 0 0 1 24.410505 41.373738z m30.202828-150.186667H323.335758a27.306667 27.306667 0 1 1 0-54.613333h108.812929a27.306667 27.306667 0 0 1 0 54.613333z m218.453333-165.494949H323.335758a27.306667 27.306667 0 1 1 0-54.613334h327.266262a27.306667 27.306667 0 0 1 0 54.613334z" p-id="9543"></path></svg>