<?xml version="1.0" standalone="no"?><!DOCTYPE svg PUBLIC "-//W3C//DTD SVG 1.1//EN" "http://www.w3.org/Graphics/SVG/1.1/DTD/svg11.dtd"><svg t="1548641287989" class="icon" style="" viewBox="0 0 1024 1024" version="1.1" xmlns="http://www.w3.org/2000/svg" p-id="1172" xmlns:xlink="http://www.w3.org/1999/xlink" width="200" height="200"><defs><style type="text/css"></style></defs><path d="M554.239933 470.402876l-56.319911-14.079978a191.999696 191.999696 0 0 0-23.679962-56.95991l30.079952-49.919921a15.359976 15.359976 0 0 0 0-17.919971l-39.039938-39.039939a15.359976 15.359976 0 0 0-17.919972 0l-51.839918 27.519957a191.999696 191.999696 0 0 0-56.95991-23.679963l-14.079977-56.95991a15.359976 15.359976 0 0 0-14.719977-10.878982h-53.758915a14.719977 14.719977 0 0 0-14.079978 10.879982l-14.079977 56.95991a191.999696 191.999696 0 0 0-57.599909 23.679963l-49.919921-30.079953a15.359976 15.359976 0 0 0-17.919972 0l-38.399939 41.599935a14.719977 14.719977 0 0 0 0 17.919971l29.439953 49.919921a212.479664 212.479664 0 0 0-23.039963 56.95991l-56.95991 14.079978a14.719977 14.719977 0 0 0-13.439979 14.078978v55.039912a14.719977 14.719977 0 0 0 10.879983 14.079978l56.95991 14.079978a212.479664 212.479664 0 0 0 23.039963 56.95991l-26.879957 49.919921a14.719977 14.719977 0 0 0 0 17.919971l39.039938 39.039939a15.359976 15.359976 0 0 0 17.919972 0l49.279922-27.519957a191.999696 191.999696 0 0 0 56.95991 23.679963l14.079977 56.95891a14.719977 14.719977 0 0 0 14.079978 10.879982h54.399914a15.359976 15.359976 0 0 0 14.719977-10.879982l14.079977-56.95991a191.999696 191.999696 0 0 0 56.95991-23.679963l49.919921 30.079953a15.359976 15.359976 0 0 0 17.919972 0l39.038938-39.039939a15.359976 15.359976 0 0 0 0-17.919971l-30.079952-49.919921a191.999696 191.999696 0 0 0 23.679962-56.95991l56.319911-14.079978a14.719977 14.719977 0 0 0 11.519982-14.079978v-57.598908a14.719977 14.719977 0 0 0-9.599985-14.079978z m-271.359571 145.27977A103.679836 103.679836 0 1 1 384.000202 512.00281a103.039837 103.039837 0 0 1-101.11984 103.679836z m721.276859-419.838336l-44.15993-11.519982a199.679684 199.679684 0 0 0-19.199969-46.719926l24.319961-40.319936a12.79998 12.79998 0 0 0 0-14.719977l-35.199944-30.719951a10.879983 10.879983 0 0 0-14.079978 0l-40.959935 24.319962a146.559768 146.559768 0 0 0-42.879932-21.119967l-14.719977-46.079927a12.159981 12.159981 0 0 0-11.519982-8.959986H761.599605a11.519982 11.519982 0 0 0-11.519982 8.959986l-11.519981 46.079927a156.799752 156.799752 0 0 0-46.719927 19.19997l-40.319936-24.319962a11.519982 11.519982 0 0 0-14.719976 0l-30.719952 30.719951a10.879983 10.879983 0 0 0 0 14.719977l23.679963 40.319936a174.079725 174.079725 0 0 0-18.559971 46.719926l-46.079927 11.519982a11.519982 11.519982 0 0 0-8.959986 11.519982v44.15993a12.159981 12.159981 0 0 0 8.959986 11.519982l46.079927 11.519982a161.919744 161.919744 0 0 0 16.639974 47.359925l-23.679963 40.959935a10.239984 10.239984 0 0 0 0 14.079978l30.719952 31.35995a12.79998 12.79998 0 0 0 14.719976 0l42.239933-22.399965a199.679684 199.679684 0 0 0 46.719927 19.19997l11.519981 46.079927a11.519982 11.519982 0 0 0 11.519982 8.959986h44.15993a12.159981 12.159981 0 0 0 11.519982-10.239984l14.719977-44.15993a184.319708 184.319708 0 0 0 46.079927-19.19997l40.959935 24.319962a11.519982 11.519982 0 0 0 14.079978 0l26.879957-33.279947a11.519982 11.519982 0 0 0 0-14.079978l-21.119966-41.599934a184.319708 184.319708 0 0 0 19.199969-46.079927l46.079927-11.519982a12.159981 12.159981 0 0 0 8.959986-11.519982v-43.519931a11.519982 11.519982 0 0 0-8.959986-11.519982zM783.359571 312.324126a83.199868 83.199868 0 1 1 83.199868-83.199868 83.199868 83.199868 0 0 1-83.199868 83.199868z m231.679633 448.63729l-46.079927-11.519982a146.559768 146.559768 0 0 0-19.19997-46.079927l24.319962-40.959935a10.879983 10.879983 0 0 0 0-14.079978l-30.719951-31.35995a12.79998 12.79998 0 0 0-14.719977 0l-40.319936 24.319961a199.679684 199.679684 0 0 0-46.719926-19.199969l-13.439979-46.079927a11.519982 11.519982 0 0 0-11.519982-8.959986h-44.15993a12.159981 12.159981 0 0 0-11.519982 8.959986l-11.519982 46.079927a184.319708 184.319708 0 0 0-45.439928 17.919971l-40.959935-24.319961a11.519982 11.519982 0 0 0-14.079978 0l-31.35995 31.35995a11.519982 11.519982 0 0 0 0 14.079978l22.399965 42.879932a184.319708 184.319708 0 0 0-19.19997 46.079927l-44.799929 10.879983a12.159981 12.159981 0 0 0-8.959986 11.519982v44.15993a11.519982 11.519982 0 0 0 8.959986 11.519982l46.079927 11.519982a199.679684 199.679684 0 0 0 19.199969 46.719926l-24.319961 40.319936a12.79998 12.79998 0 0 0 0 14.719977l31.35995 30.719951a10.879983 10.879983 0 0 0 14.079978 0l40.959935-24.319962a146.559768 146.559768 0 0 0 46.079927 19.19997l11.519982 46.078927a12.159981 12.159981 0 0 0 11.519982 8.959986h44.15993a11.519982 11.519982 0 0 0 11.519982-8.959986l11.519982-46.079927a156.799752 156.799752 0 0 0 46.719926-19.19997l40.319936 24.319962a11.519982 11.519982 0 0 0 14.719977 0l30.719951-30.719951a11.519982 11.519982 0 0 0 0-14.719977l-24.319962-40.319936a156.799752 156.799752 0 0 0 19.19997-46.719926l46.079927-11.519982a11.519982 11.519982 0 0 0 8.959986-11.519982v-44.15993a12.159981 12.159981 0 0 0-7.039989-11.518982z m-220.159652 116.479816a83.199868 83.199868 0 1 1 82.55987-82.55987 83.199868 83.199868 0 0 1-82.55987 82.55987z" p-id="1173"></path></svg>